# xmcd
#
# Track frame offsets: 
#        150
#        25081
#        38499
#        50754
#        69054
#        97617
#        111537
#        125711
#        157131
#        186276
#        216066
#
# Disc length: 3409 seconds
#
# Revision: 0
# Processed by: cddbd v1.5.2PL0 Copyright (c) Steve Scherf et al.
# Submitted via: ExactAudioCopy v0.99pb4
#
DISCID=930d4f0b
DTITLE=Arlen Roth - Landscape
DYEAR=2005
DGENRE=Blues
TTITLE0=Landscape
TTITLE1=Town Without Pity
TTITLE2=Hey AR
TTITLE3=Bunky
TTITLE4=Ode To Billie Joe
TTITLE5=Shenandoah
TTITLE6=Mister Sandman
TTITLE7=House Of The Rising Sun
TTITLE8=Blues Under The Microscope
TTITLE9=Upstate Rag
TTITLE10=February
EXTD=
EXTT0=
EXTT1=
EXTT2=
EXTT3=
EXTT4=
EXTT5=
EXTT6=
EXTT7=
EXTT8=
EXTT9=
EXTT10=
PLAYORDER=
